<svg xmlns="http://www.w3.org/2000/svg" width="236" height="162" version="1.1"><rect id="backgroundrect" width="100%" height="100%" x="0" y="0" fill="none" stroke="none"/>




<g class="currentLayer"><title>Layer 1</title><path fill="#ffffff" d=" M 0.00 0.00 L 236.00 0.00 L 236.00 162.00 L 0.00 162.00 L 0.00 0.00 Z" id="svg_1" class="" opacity="0"/><path fill="#010101" d=" M 63.71 37.70 C 65.87 36.25 68.57 36.59 71.03 36.50 C 104.36 36.58 137.69 36.46 171.01 36.56 C 176.54 36.63 180.18 43.03 178.05 47.96 C 176.70 51.47 172.75 53.43 169.12 53.16 C 135.71 53.11 102.30 53.17 68.89 53.13 C 65.25 53.29 61.68 51.04 60.47 47.59 C 59.59 44.04 60.39 39.74 63.71 37.70 Z" id="svg_2" class=""/><path fill="#010101" d=" M 60.18 78.97 C 59.60 74.49 63.43 70.09 67.98 70.28 C 102.33 70.30 136.67 70.25 171.02 70.30 C 173.61 70.22 175.71 71.97 177.37 73.77 C 180.69 78.86 177.23 86.64 170.94 86.71 C 136.93 86.82 102.92 86.73 68.92 86.75 C 64.48 87.23 59.99 83.55 60.18 78.97 Z" id="svg_3" class=""/><path fill="#010101" d=" M 60.19 112.00 C 59.86 107.32 64.47 103.46 69.01 103.85 C 102.33 103.85 135.65 103.86 168.97 103.85 C 172.42 103.64 176.24 105.13 177.74 108.44 C 179.05 110.45 178.45 112.92 178.33 115.15 C 176.69 117.77 174.38 120.57 170.96 120.45 C 136.65 120.54 102.34 120.48 68.03 120.48 C 63.61 120.63 59.67 116.41 60.19 112.00 Z" id="svg_4" class=""/></g></svg>